<mxfile host="app.diagrams.net" modified="2022-05-05T15:09:50.861Z" agent="5.0 (Windows NT 10.0; Win64; x64) AppleWebKit/537.36 (KHTML, like Gecko) Chrome/101.0.4951.41 Safari/537.36 Edg/101.0.1210.32" etag="tjPxc0nXkrlsuWDN9uxk" version="18.0.0" type="github">
  <diagram id="LnRhtShNqPI80VvB1iFX" name="Page-1">
    <mxGraphModel dx="2253" dy="859" grid="1" gridSize="10" guides="1" tooltips="1" connect="1" arrows="1" fold="1" page="1" pageScale="1" pageWidth="827" pageHeight="1169" math="0" shadow="0">
      <root>
        <mxCell id="0" />
        <mxCell id="1" parent="0" />
        <mxCell id="oeg6_gfZ1PhHFVX4NEQS-1" value="主函数main()" style="ellipse;whiteSpace=wrap;html=1;" vertex="1" parent="1">
          <mxGeometry x="150" y="20" width="120" height="80" as="geometry" />
        </mxCell>
        <mxCell id="oeg6_gfZ1PhHFVX4NEQS-2" value="" style="endArrow=classic;html=1;rounded=0;exitX=0.5;exitY=1;exitDx=0;exitDy=0;entryX=0.5;entryY=0;entryDx=0;entryDy=0;" edge="1" parent="1" source="oeg6_gfZ1PhHFVX4NEQS-1" target="oeg6_gfZ1PhHFVX4NEQS-3">
          <mxGeometry width="50" height="50" relative="1" as="geometry">
            <mxPoint x="260" y="200" as="sourcePoint" />
            <mxPoint x="210" y="180" as="targetPoint" />
          </mxGeometry>
        </mxCell>
        <mxCell id="oeg6_gfZ1PhHFVX4NEQS-3" value="IsDigit" style="ellipse;whiteSpace=wrap;html=1;" vertex="1" parent="1">
          <mxGeometry x="150" y="210" width="120" height="80" as="geometry" />
        </mxCell>
        <mxCell id="oeg6_gfZ1PhHFVX4NEQS-4" value="" style="endArrow=classic;html=1;rounded=0;exitX=0.5;exitY=1;exitDx=0;exitDy=0;" edge="1" parent="1" source="oeg6_gfZ1PhHFVX4NEQS-1">
          <mxGeometry width="50" height="50" relative="1" as="geometry">
            <mxPoint x="260" y="200" as="sourcePoint" />
            <mxPoint x="460" y="210" as="targetPoint" />
            <Array as="points">
              <mxPoint x="210" y="190" />
              <mxPoint x="460" y="190" />
            </Array>
          </mxGeometry>
        </mxCell>
        <mxCell id="oeg6_gfZ1PhHFVX4NEQS-6" value="OtherProcess" style="ellipse;whiteSpace=wrap;html=1;" vertex="1" parent="1">
          <mxGeometry x="400" y="210" width="120" height="80" as="geometry" />
        </mxCell>
        <mxCell id="oeg6_gfZ1PhHFVX4NEQS-7" value="" style="endArrow=classic;html=1;rounded=0;exitX=0.5;exitY=1;exitDx=0;exitDy=0;entryX=0.5;entryY=0;entryDx=0;entryDy=0;" edge="1" parent="1" source="oeg6_gfZ1PhHFVX4NEQS-1" target="oeg6_gfZ1PhHFVX4NEQS-8">
          <mxGeometry width="50" height="50" relative="1" as="geometry">
            <mxPoint x="260" y="200" as="sourcePoint" />
            <mxPoint x="-10" y="190" as="targetPoint" />
            <Array as="points">
              <mxPoint x="210" y="190" />
              <mxPoint y="190" />
            </Array>
          </mxGeometry>
        </mxCell>
        <mxCell id="oeg6_gfZ1PhHFVX4NEQS-8" value="IsLetter" style="ellipse;whiteSpace=wrap;html=1;" vertex="1" parent="1">
          <mxGeometry x="-60" y="210" width="120" height="80" as="geometry" />
        </mxCell>
        <mxCell id="oeg6_gfZ1PhHFVX4NEQS-9" value="" style="endArrow=classic;html=1;rounded=0;exitX=0.5;exitY=1;exitDx=0;exitDy=0;" edge="1" parent="1" source="oeg6_gfZ1PhHFVX4NEQS-8">
          <mxGeometry width="50" height="50" relative="1" as="geometry">
            <mxPoint x="260" y="200" as="sourcePoint" />
            <mxPoint y="350" as="targetPoint" />
          </mxGeometry>
        </mxCell>
        <mxCell id="oeg6_gfZ1PhHFVX4NEQS-10" value="AlphaProcess" style="ellipse;whiteSpace=wrap;html=1;" vertex="1" parent="1">
          <mxGeometry x="-60" y="350" width="120" height="80" as="geometry" />
        </mxCell>
        <mxCell id="oeg6_gfZ1PhHFVX4NEQS-11" value="" style="endArrow=classic;html=1;rounded=0;exitX=0.5;exitY=1;exitDx=0;exitDy=0;" edge="1" parent="1" source="oeg6_gfZ1PhHFVX4NEQS-3">
          <mxGeometry width="50" height="50" relative="1" as="geometry">
            <mxPoint x="260" y="200" as="sourcePoint" />
            <mxPoint x="210" y="350" as="targetPoint" />
          </mxGeometry>
        </mxCell>
        <mxCell id="oeg6_gfZ1PhHFVX4NEQS-12" value="DigitProcess" style="ellipse;whiteSpace=wrap;html=1;" vertex="1" parent="1">
          <mxGeometry x="150" y="350" width="120" height="80" as="geometry" />
        </mxCell>
        <mxCell id="oeg6_gfZ1PhHFVX4NEQS-13" value="开始" style="ellipse;whiteSpace=wrap;html=1;" vertex="1" parent="1">
          <mxGeometry x="1350" y="410" width="120" height="80" as="geometry" />
        </mxCell>
        <mxCell id="oeg6_gfZ1PhHFVX4NEQS-14" value="" style="endArrow=classic;html=1;rounded=0;exitX=0.5;exitY=1;exitDx=0;exitDy=0;entryX=0.5;entryY=0;entryDx=0;entryDy=0;" edge="1" parent="1" source="oeg6_gfZ1PhHFVX4NEQS-20" target="oeg6_gfZ1PhHFVX4NEQS-18">
          <mxGeometry width="50" height="50" relative="1" as="geometry">
            <mxPoint x="470" y="770" as="sourcePoint" />
            <mxPoint x="380" y="640" as="targetPoint" />
          </mxGeometry>
        </mxCell>
        <mxCell id="oeg6_gfZ1PhHFVX4NEQS-15" value="IsLetter" style="rhombus;whiteSpace=wrap;html=1;" vertex="1" parent="1">
          <mxGeometry x="315" y="710" width="130" height="80" as="geometry" />
        </mxCell>
        <mxCell id="oeg6_gfZ1PhHFVX4NEQS-17" value="读取文件" style="rounded=0;whiteSpace=wrap;html=1;" vertex="1" parent="1">
          <mxGeometry x="1530" y="500" width="120" height="60" as="geometry" />
        </mxCell>
        <mxCell id="oeg6_gfZ1PhHFVX4NEQS-18" value="读取文件" style="rhombus;whiteSpace=wrap;html=1;" vertex="1" parent="1">
          <mxGeometry x="315" y="600" width="130" height="80" as="geometry" />
        </mxCell>
        <mxCell id="oeg6_gfZ1PhHFVX4NEQS-19" value="" style="endArrow=classic;html=1;rounded=0;exitX=0.5;exitY=1;exitDx=0;exitDy=0;entryX=0.5;entryY=0;entryDx=0;entryDy=0;" edge="1" parent="1" source="oeg6_gfZ1PhHFVX4NEQS-18" target="oeg6_gfZ1PhHFVX4NEQS-15">
          <mxGeometry width="50" height="50" relative="1" as="geometry">
            <mxPoint x="460" y="770" as="sourcePoint" />
            <mxPoint x="510" y="720" as="targetPoint" />
          </mxGeometry>
        </mxCell>
        <mxCell id="oeg6_gfZ1PhHFVX4NEQS-20" value="开始" style="rounded=0;whiteSpace=wrap;html=1;" vertex="1" parent="1">
          <mxGeometry x="320" y="490" width="120" height="60" as="geometry" />
        </mxCell>
        <mxCell id="oeg6_gfZ1PhHFVX4NEQS-21" value="假" style="text;html=1;strokeColor=none;fillColor=none;align=center;verticalAlign=middle;whiteSpace=wrap;rounded=0;" vertex="1" parent="1">
          <mxGeometry x="480" y="720" width="60" height="30" as="geometry" />
        </mxCell>
        <mxCell id="oeg6_gfZ1PhHFVX4NEQS-22" value="文件存在" style="text;html=1;strokeColor=none;fillColor=none;align=center;verticalAlign=middle;whiteSpace=wrap;rounded=0;" vertex="1" parent="1">
          <mxGeometry x="380" y="680" width="60" height="30" as="geometry" />
        </mxCell>
        <mxCell id="oeg6_gfZ1PhHFVX4NEQS-23" value="不存在" style="text;html=1;strokeColor=none;fillColor=none;align=center;verticalAlign=middle;whiteSpace=wrap;rounded=0;" vertex="1" parent="1">
          <mxGeometry x="180" y="600" width="60" height="30" as="geometry" />
        </mxCell>
        <mxCell id="oeg6_gfZ1PhHFVX4NEQS-24" value="" style="endArrow=classic;html=1;rounded=0;exitX=0;exitY=0.5;exitDx=0;exitDy=0;entryX=0;entryY=0.5;entryDx=0;entryDy=0;" edge="1" parent="1" source="oeg6_gfZ1PhHFVX4NEQS-18" target="oeg6_gfZ1PhHFVX4NEQS-48">
          <mxGeometry width="50" height="50" relative="1" as="geometry">
            <mxPoint x="460" y="770" as="sourcePoint" />
            <mxPoint x="120" y="1170" as="targetPoint" />
            <Array as="points">
              <mxPoint x="120" y="640" />
              <mxPoint x="110" y="1180" />
            </Array>
          </mxGeometry>
        </mxCell>
        <mxCell id="oeg6_gfZ1PhHFVX4NEQS-25" value="" style="endArrow=classic;html=1;rounded=0;exitX=0.5;exitY=1;exitDx=0;exitDy=0;" edge="1" parent="1" source="oeg6_gfZ1PhHFVX4NEQS-15">
          <mxGeometry width="50" height="50" relative="1" as="geometry">
            <mxPoint x="510" y="880" as="sourcePoint" />
            <mxPoint x="380" y="840" as="targetPoint" />
          </mxGeometry>
        </mxCell>
        <mxCell id="oeg6_gfZ1PhHFVX4NEQS-26" value="读取字符为字母" style="text;html=1;strokeColor=none;fillColor=none;align=center;verticalAlign=middle;whiteSpace=wrap;rounded=0;" vertex="1" parent="1">
          <mxGeometry x="385" y="800" width="60" height="30" as="geometry" />
        </mxCell>
        <mxCell id="oeg6_gfZ1PhHFVX4NEQS-27" value="AlphaProcess" style="rounded=0;whiteSpace=wrap;html=1;" vertex="1" parent="1">
          <mxGeometry x="320" y="840" width="120" height="60" as="geometry" />
        </mxCell>
        <mxCell id="oeg6_gfZ1PhHFVX4NEQS-28" value="IsLetter或IsDigit" style="rhombus;whiteSpace=wrap;html=1;" vertex="1" parent="1">
          <mxGeometry x="315" y="930" width="130" height="80" as="geometry" />
        </mxCell>
        <mxCell id="oeg6_gfZ1PhHFVX4NEQS-29" value="" style="endArrow=classic;html=1;rounded=0;exitX=0.5;exitY=1;exitDx=0;exitDy=0;entryX=0.5;entryY=0;entryDx=0;entryDy=0;" edge="1" parent="1" source="oeg6_gfZ1PhHFVX4NEQS-27" target="oeg6_gfZ1PhHFVX4NEQS-28">
          <mxGeometry width="50" height="50" relative="1" as="geometry">
            <mxPoint x="510" y="970" as="sourcePoint" />
            <mxPoint x="560" y="920" as="targetPoint" />
          </mxGeometry>
        </mxCell>
        <mxCell id="oeg6_gfZ1PhHFVX4NEQS-30" value="" style="endArrow=classic;html=1;rounded=0;exitX=1;exitY=0.5;exitDx=0;exitDy=0;entryX=1;entryY=0.5;entryDx=0;entryDy=0;" edge="1" parent="1" source="oeg6_gfZ1PhHFVX4NEQS-28" target="oeg6_gfZ1PhHFVX4NEQS-27">
          <mxGeometry width="50" height="50" relative="1" as="geometry">
            <mxPoint x="510" y="970" as="sourcePoint" />
            <mxPoint x="560" y="920" as="targetPoint" />
            <Array as="points">
              <mxPoint x="600" y="970" />
              <mxPoint x="600" y="870" />
            </Array>
          </mxGeometry>
        </mxCell>
        <mxCell id="oeg6_gfZ1PhHFVX4NEQS-31" value="真" style="text;html=1;strokeColor=none;fillColor=none;align=center;verticalAlign=middle;whiteSpace=wrap;rounded=0;" vertex="1" parent="1">
          <mxGeometry x="480" y="940" width="60" height="30" as="geometry" />
        </mxCell>
        <mxCell id="oeg6_gfZ1PhHFVX4NEQS-32" value="" style="endArrow=classic;html=1;rounded=0;exitX=1;exitY=0.5;exitDx=0;exitDy=0;entryX=0.5;entryY=0;entryDx=0;entryDy=0;" edge="1" parent="1" source="oeg6_gfZ1PhHFVX4NEQS-15" target="oeg6_gfZ1PhHFVX4NEQS-34">
          <mxGeometry width="50" height="50" relative="1" as="geometry">
            <mxPoint x="660" y="900" as="sourcePoint" />
            <mxPoint x="720" y="1000" as="targetPoint" />
            <Array as="points">
              <mxPoint x="715" y="750" />
            </Array>
          </mxGeometry>
        </mxCell>
        <mxCell id="oeg6_gfZ1PhHFVX4NEQS-34" value="IsDigit" style="rhombus;whiteSpace=wrap;html=1;" vertex="1" parent="1">
          <mxGeometry x="650" y="790" width="130" height="80" as="geometry" />
        </mxCell>
        <mxCell id="oeg6_gfZ1PhHFVX4NEQS-35" value="" style="endArrow=classic;html=1;rounded=0;exitX=0.5;exitY=1;exitDx=0;exitDy=0;entryX=0.5;entryY=0;entryDx=0;entryDy=0;" edge="1" parent="1" source="oeg6_gfZ1PhHFVX4NEQS-34" target="oeg6_gfZ1PhHFVX4NEQS-37">
          <mxGeometry width="50" height="50" relative="1" as="geometry">
            <mxPoint x="660" y="820" as="sourcePoint" />
            <mxPoint x="715" y="950" as="targetPoint" />
          </mxGeometry>
        </mxCell>
        <mxCell id="oeg6_gfZ1PhHFVX4NEQS-36" value="真" style="text;html=1;strokeColor=none;fillColor=none;align=center;verticalAlign=middle;whiteSpace=wrap;rounded=0;" vertex="1" parent="1">
          <mxGeometry x="660" y="875" width="60" height="30" as="geometry" />
        </mxCell>
        <mxCell id="oeg6_gfZ1PhHFVX4NEQS-37" value="DigitProcess" style="rounded=0;whiteSpace=wrap;html=1;" vertex="1" parent="1">
          <mxGeometry x="655" y="950" width="120" height="60" as="geometry" />
        </mxCell>
        <mxCell id="oeg6_gfZ1PhHFVX4NEQS-38" value="" style="endArrow=classic;html=1;rounded=0;exitX=1;exitY=0.5;exitDx=0;exitDy=0;" edge="1" parent="1" source="oeg6_gfZ1PhHFVX4NEQS-34">
          <mxGeometry width="50" height="50" relative="1" as="geometry">
            <mxPoint x="700" y="1040" as="sourcePoint" />
            <mxPoint x="880" y="950" as="targetPoint" />
            <Array as="points">
              <mxPoint x="880" y="830" />
            </Array>
          </mxGeometry>
        </mxCell>
        <mxCell id="oeg6_gfZ1PhHFVX4NEQS-39" value="OtherProcess" style="rounded=0;whiteSpace=wrap;html=1;" vertex="1" parent="1">
          <mxGeometry x="827" y="950" width="120" height="60" as="geometry" />
        </mxCell>
        <mxCell id="oeg6_gfZ1PhHFVX4NEQS-40" value="IsDigit" style="rhombus;whiteSpace=wrap;html=1;" vertex="1" parent="1">
          <mxGeometry x="650" y="1060" width="130" height="80" as="geometry" />
        </mxCell>
        <mxCell id="oeg6_gfZ1PhHFVX4NEQS-41" value="IsArithmetic" style="rhombus;whiteSpace=wrap;html=1;" vertex="1" parent="1">
          <mxGeometry x="822" y="1050" width="130" height="80" as="geometry" />
        </mxCell>
        <mxCell id="oeg6_gfZ1PhHFVX4NEQS-42" value="" style="endArrow=classic;html=1;rounded=0;exitX=0.5;exitY=1;exitDx=0;exitDy=0;entryX=0.5;entryY=0;entryDx=0;entryDy=0;" edge="1" parent="1" source="oeg6_gfZ1PhHFVX4NEQS-37" target="oeg6_gfZ1PhHFVX4NEQS-40">
          <mxGeometry width="50" height="50" relative="1" as="geometry">
            <mxPoint x="700" y="1170" as="sourcePoint" />
            <mxPoint x="750" y="1120" as="targetPoint" />
          </mxGeometry>
        </mxCell>
        <mxCell id="oeg6_gfZ1PhHFVX4NEQS-43" value="" style="endArrow=classic;html=1;rounded=0;exitX=0;exitY=0.5;exitDx=0;exitDy=0;entryX=0;entryY=0.5;entryDx=0;entryDy=0;" edge="1" parent="1" source="oeg6_gfZ1PhHFVX4NEQS-40" target="oeg6_gfZ1PhHFVX4NEQS-37">
          <mxGeometry width="50" height="50" relative="1" as="geometry">
            <mxPoint x="700" y="1120" as="sourcePoint" />
            <mxPoint x="750" y="1070" as="targetPoint" />
            <Array as="points">
              <mxPoint x="530" y="1100" />
              <mxPoint x="530" y="980" />
            </Array>
          </mxGeometry>
        </mxCell>
        <mxCell id="oeg6_gfZ1PhHFVX4NEQS-44" value="" style="endArrow=classic;html=1;rounded=0;exitX=0.5;exitY=1;exitDx=0;exitDy=0;entryX=0.5;entryY=0;entryDx=0;entryDy=0;" edge="1" parent="1" source="oeg6_gfZ1PhHFVX4NEQS-39" target="oeg6_gfZ1PhHFVX4NEQS-41">
          <mxGeometry width="50" height="50" relative="1" as="geometry">
            <mxPoint x="700" y="1120" as="sourcePoint" />
            <mxPoint x="750" y="1070" as="targetPoint" />
          </mxGeometry>
        </mxCell>
        <mxCell id="oeg6_gfZ1PhHFVX4NEQS-45" value="" style="endArrow=classic;html=1;rounded=0;exitX=0.5;exitY=1;exitDx=0;exitDy=0;entryX=1;entryY=0.5;entryDx=0;entryDy=0;" edge="1" parent="1" source="oeg6_gfZ1PhHFVX4NEQS-41" target="oeg6_gfZ1PhHFVX4NEQS-48">
          <mxGeometry width="50" height="50" relative="1" as="geometry">
            <mxPoint x="700" y="1120" as="sourcePoint" />
            <mxPoint x="887" y="1180" as="targetPoint" />
            <Array as="points">
              <mxPoint x="887" y="1180" />
            </Array>
          </mxGeometry>
        </mxCell>
        <mxCell id="oeg6_gfZ1PhHFVX4NEQS-46" value="真" style="text;html=1;strokeColor=none;fillColor=none;align=center;verticalAlign=middle;whiteSpace=wrap;rounded=0;" vertex="1" parent="1">
          <mxGeometry x="880" y="1130" width="60" height="30" as="geometry" />
        </mxCell>
        <mxCell id="oeg6_gfZ1PhHFVX4NEQS-48" value="结束" style="rounded=0;whiteSpace=wrap;html=1;" vertex="1" parent="1">
          <mxGeometry x="325" y="1150" width="120" height="60" as="geometry" />
        </mxCell>
        <mxCell id="oeg6_gfZ1PhHFVX4NEQS-49" value="IsRelation" style="rhombus;whiteSpace=wrap;html=1;" vertex="1" parent="1">
          <mxGeometry x="980" y="1050" width="130" height="80" as="geometry" />
        </mxCell>
        <mxCell id="oeg6_gfZ1PhHFVX4NEQS-50" value="" style="endArrow=classic;html=1;rounded=0;exitX=1;exitY=0.5;exitDx=0;exitDy=0;entryX=0;entryY=0.5;entryDx=0;entryDy=0;" edge="1" parent="1" source="oeg6_gfZ1PhHFVX4NEQS-41" target="oeg6_gfZ1PhHFVX4NEQS-49">
          <mxGeometry width="50" height="50" relative="1" as="geometry">
            <mxPoint x="700" y="1120" as="sourcePoint" />
            <mxPoint x="750" y="1070" as="targetPoint" />
          </mxGeometry>
        </mxCell>
        <mxCell id="oeg6_gfZ1PhHFVX4NEQS-51" value="假" style="text;html=1;strokeColor=none;fillColor=none;align=center;verticalAlign=middle;whiteSpace=wrap;rounded=0;" vertex="1" parent="1">
          <mxGeometry x="940" y="1060" width="60" height="30" as="geometry" />
        </mxCell>
        <mxCell id="oeg6_gfZ1PhHFVX4NEQS-52" value="" style="endArrow=classic;html=1;rounded=0;exitX=0.5;exitY=1;exitDx=0;exitDy=0;entryX=1;entryY=0.5;entryDx=0;entryDy=0;" edge="1" parent="1" source="oeg6_gfZ1PhHFVX4NEQS-49" target="oeg6_gfZ1PhHFVX4NEQS-48">
          <mxGeometry width="50" height="50" relative="1" as="geometry">
            <mxPoint x="700" y="1120" as="sourcePoint" />
            <mxPoint x="1045" y="1180" as="targetPoint" />
            <Array as="points">
              <mxPoint x="1045" y="1180" />
            </Array>
          </mxGeometry>
        </mxCell>
        <mxCell id="oeg6_gfZ1PhHFVX4NEQS-53" value="真" style="text;html=1;strokeColor=none;fillColor=none;align=center;verticalAlign=middle;whiteSpace=wrap;rounded=0;" vertex="1" parent="1">
          <mxGeometry x="990" y="1130" width="60" height="30" as="geometry" />
        </mxCell>
        <mxCell id="oeg6_gfZ1PhHFVX4NEQS-55" value="IsBorder" style="rhombus;whiteSpace=wrap;html=1;" vertex="1" parent="1">
          <mxGeometry x="1130" y="1050" width="130" height="80" as="geometry" />
        </mxCell>
        <mxCell id="oeg6_gfZ1PhHFVX4NEQS-56" value="" style="endArrow=classic;html=1;rounded=0;exitX=1;exitY=0.5;exitDx=0;exitDy=0;entryX=0;entryY=0.5;entryDx=0;entryDy=0;" edge="1" parent="1" source="oeg6_gfZ1PhHFVX4NEQS-49" target="oeg6_gfZ1PhHFVX4NEQS-55">
          <mxGeometry width="50" height="50" relative="1" as="geometry">
            <mxPoint x="700" y="1120" as="sourcePoint" />
            <mxPoint x="750" y="1070" as="targetPoint" />
          </mxGeometry>
        </mxCell>
        <mxCell id="oeg6_gfZ1PhHFVX4NEQS-57" value="假" style="text;html=1;strokeColor=none;fillColor=none;align=center;verticalAlign=middle;whiteSpace=wrap;rounded=0;" vertex="1" parent="1">
          <mxGeometry x="1080" y="1060" width="60" height="30" as="geometry" />
        </mxCell>
        <mxCell id="oeg6_gfZ1PhHFVX4NEQS-58" value="" style="endArrow=classic;html=1;rounded=0;exitX=0.5;exitY=1;exitDx=0;exitDy=0;entryX=1;entryY=0.5;entryDx=0;entryDy=0;" edge="1" parent="1" source="oeg6_gfZ1PhHFVX4NEQS-55" target="oeg6_gfZ1PhHFVX4NEQS-48">
          <mxGeometry width="50" height="50" relative="1" as="geometry">
            <mxPoint x="700" y="1120" as="sourcePoint" />
            <mxPoint x="750" y="1070" as="targetPoint" />
            <Array as="points">
              <mxPoint x="1195" y="1180" />
            </Array>
          </mxGeometry>
        </mxCell>
        <mxCell id="oeg6_gfZ1PhHFVX4NEQS-59" value="" style="endArrow=classic;html=1;rounded=0;exitX=0;exitY=0.5;exitDx=0;exitDy=0;entryX=0.5;entryY=0;entryDx=0;entryDy=0;" edge="1" parent="1" source="oeg6_gfZ1PhHFVX4NEQS-28" target="oeg6_gfZ1PhHFVX4NEQS-18">
          <mxGeometry width="50" height="50" relative="1" as="geometry">
            <mxPoint x="700" y="980" as="sourcePoint" />
            <mxPoint x="190" y="970" as="targetPoint" />
            <Array as="points">
              <mxPoint x="190" y="970" />
              <mxPoint x="190" y="600" />
            </Array>
          </mxGeometry>
        </mxCell>
        <mxCell id="oeg6_gfZ1PhHFVX4NEQS-60" value="Text" style="text;html=1;strokeColor=none;fillColor=none;align=center;verticalAlign=middle;whiteSpace=wrap;rounded=0;" vertex="1" parent="1">
          <mxGeometry x="690" y="940" width="60" height="30" as="geometry" />
        </mxCell>
        <mxCell id="oeg6_gfZ1PhHFVX4NEQS-61" value="假" style="text;html=1;strokeColor=none;fillColor=none;align=center;verticalAlign=middle;whiteSpace=wrap;rounded=0;" vertex="1" parent="1">
          <mxGeometry x="230" y="930" width="60" height="30" as="geometry" />
        </mxCell>
        <mxCell id="oeg6_gfZ1PhHFVX4NEQS-62" value="" style="endArrow=classic;html=1;rounded=0;exitX=1;exitY=0.5;exitDx=0;exitDy=0;entryX=0.5;entryY=0;entryDx=0;entryDy=0;" edge="1" parent="1" source="oeg6_gfZ1PhHFVX4NEQS-40" target="oeg6_gfZ1PhHFVX4NEQS-18">
          <mxGeometry width="50" height="50" relative="1" as="geometry">
            <mxPoint x="700" y="980" as="sourcePoint" />
            <mxPoint x="750" y="930" as="targetPoint" />
            <Array as="points">
              <mxPoint x="780" y="1160" />
              <mxPoint x="190" y="1100" />
              <mxPoint x="190" y="600" />
            </Array>
          </mxGeometry>
        </mxCell>
        <mxCell id="oeg6_gfZ1PhHFVX4NEQS-63" value="Text" style="text;html=1;strokeColor=none;fillColor=none;align=center;verticalAlign=middle;whiteSpace=wrap;rounded=0;" vertex="1" parent="1">
          <mxGeometry x="690" y="940" width="60" height="30" as="geometry" />
        </mxCell>
        <mxCell id="oeg6_gfZ1PhHFVX4NEQS-64" value="假" style="text;html=1;strokeColor=none;fillColor=none;align=center;verticalAlign=middle;whiteSpace=wrap;rounded=0;" vertex="1" parent="1">
          <mxGeometry x="775" y="1120" width="60" height="30" as="geometry" />
        </mxCell>
        <mxCell id="oeg6_gfZ1PhHFVX4NEQS-65" value="真" style="text;html=1;strokeColor=none;fillColor=none;align=center;verticalAlign=middle;whiteSpace=wrap;rounded=0;" vertex="1" parent="1">
          <mxGeometry x="580" y="1070" width="60" height="30" as="geometry" />
        </mxCell>
      </root>
    </mxGraphModel>
  </diagram>
</mxfile>
